<?xml version="1.0" encoding="utf-8"?>
<!-- Generator: Adobe Illustrator 18.0.0, SVG Export Plug-In . SVG Version: 6.00 Build 0)  -->
<!DOCTYPE svg PUBLIC "-//W3C//DTD SVG 1.1//EN" "http://www.w3.org/Graphics/SVG/1.1/DTD/svg11.dtd">
<svg version="1.1" id="Layer_3" xmlns="http://www.w3.org/2000/svg" xmlns:xlink="http://www.w3.org/1999/xlink" x="0px" y="0px"
	 viewBox="0 0 1920 1080" enable-background="new 0 0 1920 1080" xml:space="preserve">
<linearGradient id="SVGID_1_" gradientUnits="userSpaceOnUse" x1="426.7475" y1="506.25" x2="1506.7476" y2="506.25">
	<stop  offset="0" style="stop-color:#2ECC71"/>
	<stop  offset="0.6839" style="stop-color:#F1C40F"/>
	<stop  offset="1" style="stop-color:#F1C40F"/>
</linearGradient>
<path fill="url(#SVGID_1_)" d="M1506.7,342.3c0-55.1-44.9-100-100-100c-55.1,0-100,44.9-100,100c0,1,0.1,2.1,0.2,3.1l-206.4,88
	c-18.3-22.8-46.4-37.5-77.9-37.5c-6.2,0-12.3,0.6-18.2,1.7l-55.6-153.3c22.6-18.3,37.2-46.3,37.2-77.7c0-55.1-44.9-100-100-100
	c-55.1,0-100,44.9-100,100c0,10.8,1.8,21.3,5,31L582.4,336.1c-15.9-10.7-35.1-17-55.7-17c-55.1,0-100,44.9-100,100
	c0,55.1,44.9,100,100,100c55.1,0,100-44.9,100-100c0-17.6-4.6-34.1-12.6-48.4l201-133.5c18.1,18.2,43.2,29.4,70.8,29.4
	c7.1,0,14.1-0.8,20.8-2.2L962,416.6c-23.9,18.3-39.4,47-39.4,79.3c0,55.1,44.9,100,100,100s100-44.9,100-100c0-7.1-0.8-14-2.2-20.7
	l198.8-84.8c12.6,22.8,33.9,40.1,59.3,47.6l-48.6,207.4c-12.4,6-23.6,14.5-32.8,25.3c-14.2,16.7-22.4,37.5-23.6,59.2L866.4,818
	c-12.1-41.6-50.5-72.2-96-72.2c-55.1,0-100,44.9-100,100c0,55.1,44.9,100,100,100c48.6,0,89.2-34.9,98.1-80.9l413.2-89.2
	c13.4,30.2,41.6,53,74.8,58.5c5.6,0.9,11.2,1.4,16.8,1.4c29.4,0,57.2-12.9,76.2-35.3c19-22.4,27.2-52.1,22.4-81.5
	c-6.8-41.4-40.5-75.1-81.9-81.9c-3.4-0.6-6.9-0.9-10.4-1.1l45.8-195.5C1471.7,431.6,1506.7,391,1506.7,342.3z M526.7,472.8
	c-29.6,0-53.7-24.1-53.7-53.7s24.1-53.7,53.7-53.7c29.6,0,53.7,24.1,53.7,53.7S556.3,472.8,526.7,472.8z M832.3,166.7
	c0-29.6,24.1-53.7,53.7-53.7c29.6,0,53.7,24.1,53.7,53.7s-24.1,53.7-53.7,53.7C856.4,220.3,832.3,196.2,832.3,166.7z M1022.6,549.6
	c-29.6,0-53.7-24.1-53.7-53.7c0-29.6,24.1-53.7,53.7-53.7s53.7,24.1,53.7,53.7C1076.3,525.5,1052.2,549.6,1022.6,549.6z
	 M770.4,899.5c-29.6,0-53.7-24.1-53.7-53.7c0-29.6,24.1-53.7,53.7-53.7c29.6,0,53.7,24.1,53.7,53.7
	C824.1,875.4,800,899.5,770.4,899.5z M1353.1,342.3c0-29.6,24.1-53.7,53.7-53.7c29.6,0,53.7,24.1,53.7,53.7s-24.1,53.7-53.7,53.7
	C1377.2,395.9,1353.1,371.9,1353.1,342.3z M1426.3,726.3c2.6,16.1-1.6,31.8-12,44c-12.2,14.4-31.1,21.3-50.2,18.2
	c-22.1-3.6-40-21.6-43.6-43.6c-2.6-16.1,1.6-31.8,12-44c10.2-12,25.2-19,40.9-19c3.1,0,6.2,0.3,9.3,0.8
	C1404.7,686.3,1422.6,704.3,1426.3,726.3z"/>
</svg>
