<?xml version="1.0" encoding="utf-8"?>
<!-- Generator: Adobe Illustrator 18.0.0, SVG Export Plug-In . SVG Version: 6.00 Build 0)  -->
<!DOCTYPE svg PUBLIC "-//W3C//DTD SVG 1.1//EN" "http://www.w3.org/Graphics/SVG/1.1/DTD/svg11.dtd">
<svg version="1.1" id="Layer_2" xmlns="http://www.w3.org/2000/svg" xmlns:xlink="http://www.w3.org/1999/xlink" x="0px" y="0px"
	 viewBox="0 0 1920 1080" enable-background="new 0 0 1920 1080" xml:space="preserve">
<g>
	<linearGradient id="SVGID_1_" gradientUnits="userSpaceOnUse" x1="425.9965" y1="504.8231" x2="985.1927" y2="504.8231">
		<stop  offset="0" style="stop-color:#F1C40F"/>
		<stop  offset="0.2292" style="stop-color:#F1C110"/>
		<stop  offset="0.4069" style="stop-color:#F0B714"/>
		<stop  offset="0.5674" style="stop-color:#EFA71A"/>
		<stop  offset="0.7177" style="stop-color:#ED8F23"/>
		<stop  offset="0.8595" style="stop-color:#EA722E"/>
		<stop  offset="0.9956" style="stop-color:#E74D3C"/>
		<stop  offset="1" style="stop-color:#E74C3C"/>
	</linearGradient>
	<path fill="url(#SVGID_1_)" d="M885.2,65.2c-55.1,0-100,44.9-100,100c0,12.6,2.4,24.6,6.7,35.7l-207,136.1
		c-16.5-12.1-36.9-19.4-58.9-19.4c-55.1,0-100,44.9-100,100c0,55.1,44.9,100,100,100c12.2,0,23.9-2.3,34.8-6.4l138.9,261.8
		c-18.5,18.2-30,43.4-30,71.3c0,55.1,44.9,100,100,100c55.1,0,100-44.9,100-100c0-55.1-44.9-100-100-100c-10.5,0-20.7,1.7-30.2,4.7
		l-140-263.8c16.4-17.8,26.6-41.5,26.6-67.6c0-16.2-4-31.5-10.8-45.1l203-133.4c17.8,16.1,41.2,26,67.1,26c55.1,0,100-44.9,100-100
		C985.2,110.1,940.3,65.2,885.2,65.2z M823.3,844.4c0,29.6-24.1,53.7-53.7,53.7c-29.6,0-53.7-24.1-53.7-53.7
		c0-29.6,24.1-53.7,53.7-53.7C799.3,790.8,823.3,814.8,823.3,844.4z M472.3,417.7c0-29.6,24.1-53.7,53.7-53.7
		c29.6,0,53.7,24.1,53.7,53.7c0,29.6-24.1,53.7-53.7,53.7C496.4,471.3,472.3,447.3,472.3,417.7z M885.2,218.9
		c-29.6,0-53.7-24.1-53.7-53.7s24.1-53.7,53.7-53.7c29.6,0,53.7,24.1,53.7,53.7S914.8,218.9,885.2,218.9z"/>
	<linearGradient id="SVGID_2_" gradientUnits="userSpaceOnUse" x1="921.8613" y1="537.5155" x2="1505.9965" y2="537.5155">
		<stop  offset="0" style="stop-color:#F1C40F"/>
		<stop  offset="5.453962e-02" style="stop-color:#EFAF17"/>
		<stop  offset="0.152" style="stop-color:#ED9122"/>
		<stop  offset="0.2593" style="stop-color:#EB782C"/>
		<stop  offset="0.3784" style="stop-color:#E96433"/>
		<stop  offset="0.5156" style="stop-color:#E85638"/>
		<stop  offset="0.6871" style="stop-color:#E74E3B"/>
		<stop  offset="1" style="stop-color:#E74C3C"/>
	</linearGradient>
	<path fill="url(#SVGID_2_)" d="M1406,440.8c55.1,0,100-44.9,100-100c0-55.1-44.9-100-100-100c-55.1,0-100,44.9-100,100
		c0,2.8,0.2,5.5,0.4,8.2l-204.3,86.1c-18.2-24.6-47.4-40.6-80.3-40.6c-55.1,0-100,44.9-100,100s44.9,100,100,100
		c22.3,0,42.9-7.4,59.6-19.9L1280,696.6c-6.9,17-9.1,35.7-6,54.4c6.8,41.4,40.4,75.1,81.9,81.9c5.6,0.9,11.2,1.4,16.8,1.4
		c29.4,0,57.2-12.9,76.2-35.3c19-22.4,27.2-52.1,22.4-81.5c-6.8-41.4-40.5-75.1-81.9-81.9c-5.6-0.9-11.2-1.4-16.8-1.4
		c-24.3,0-47.5,8.8-65.6,24.6l-195.6-120.1c6.6-13.3,10.4-28.3,10.4-44.2c0-5.7-0.6-11.3-1.5-16.7l200.6-84.6
		C1338.6,421.7,1370.1,440.8,1406,440.8z M1021.9,548.2c-29.6,0-53.7-24.1-53.7-53.7s24.1-53.7,53.7-53.7s53.7,24.1,53.7,53.7
		S1051.4,548.2,1021.9,548.2z M1372.6,680.5c3.1,0,6.2,0.3,9.3,0.8c22.1,3.6,40,21.6,43.6,43.6c2.6,16.2-1.6,31.8-12,44
		c-12.2,14.4-31.2,21.3-50.2,18.2c-22.1-3.6-40-21.6-43.6-43.6c-2.6-16.1,1.6-31.8,12-44C1341.9,687.4,1356.8,680.5,1372.6,680.5z
		 M1406,287.2c29.6,0,53.7,24.1,53.7,53.7s-24.1,53.7-53.7,53.7s-53.7-24.1-53.7-53.7S1376.4,287.2,1406,287.2z"/>
</g>
</svg>
