<?xml version="1.0" encoding="utf-8"?>
<!-- Generator: Adobe Illustrator 18.0.0, SVG Export Plug-In . SVG Version: 6.00 Build 0)  -->
<!DOCTYPE svg PUBLIC "-//W3C//DTD SVG 1.1//EN" "http://www.w3.org/Graphics/SVG/1.1/DTD/svg11.dtd">
<svg version="1.1" id="Layer_2" xmlns="http://www.w3.org/2000/svg" xmlns:xlink="http://www.w3.org/1999/xlink" x="0px" y="0px"
	 viewBox="0 0 1920 1080" enable-background="new 0 0 1920 1080" xml:space="preserve">
<linearGradient id="SVGID_1_" gradientUnits="userSpaceOnUse" x1="426.75" y1="506.25" x2="1506.75" y2="506.25">
	<stop  offset="0" style="stop-color:#1EACC7"/>
	<stop  offset="0.6839" style="stop-color:#9B59B6"/>
	<stop  offset="1" style="stop-color:#9B59B6"/>
</linearGradient>
<path fill="url(#SVGID_1_)" d="M1406.8,442.3c55.1,0,100-44.9,100-100c0-55.1-44.9-100-100-100s-100,44.9-100,100
	c0,2.3,0.2,4.6,0.3,6.8l-205.1,86.4c-18.3-24-47-39.5-79.5-39.5c-6.8,0-13.4,0.7-19.8,2l-55.7-152.3c23.6-18.3,38.8-46.8,38.8-78.9
	c0-55.1-44.9-100-100-100c-55.1,0-100,44.9-100,100s44.9,100,100,100c6.5,0,12.7-0.7,18.9-1.8l55.9,152.8
	c-15.3,12.2-27.1,28.7-33.2,47.7l-301-51.4c-2.7-52.7-46.4-94.8-99.7-94.8c-55.1,0-100,44.9-100,100c0,55.1,44.9,100,100,100
	c40.8,0,75.9-24.6,91.4-59.7L924,511.6c4.2,26.1,18.4,48.9,38.7,64.1L822.8,760.9c-15.3-9.4-33.2-15-52.4-15
	c-55.1,0-100,44.9-100,100c0,55.1,44.9,100,100,100c55.1,0,100-44.9,100-100c0-19-5.4-36.7-14.6-51.8l150.8-199.5
	c5.2,0.9,10.6,1.4,16,1.4c21.2,0,40.9-6.7,57.1-18L1281,697.5c-7,17.1-9.3,36.1-6.2,54.9c6.8,41.4,40.5,75.1,81.9,81.9
	c5.6,0.9,11.2,1.4,16.8,1.4c29.4,0,57.2-12.9,76.2-35.3c19-22.4,27.2-52.1,22.4-81.5c-6.8-41.4-40.5-75.1-81.9-81.9
	c-5.6-0.9-11.2-1.4-16.8-1.4c-24.1,0-47.1,8.7-65.1,24.2L1111,542.6c7.4-14,11.6-29.8,11.6-46.7c0-6.2-0.6-12.2-1.7-18.1l200.2-84.3
	C1338.5,422.6,1370.4,442.3,1406.8,442.3z M832.3,166.7c0-29.6,24.1-53.7,53.7-53.7c29.6,0,53.7,24.1,53.7,53.7
	s-24.1,53.7-53.7,53.7C856.4,220.3,832.3,196.2,832.3,166.7z M526.7,472.8c-29.6,0-53.7-24.1-53.7-53.7s24.1-53.7,53.7-53.7
	c29.6,0,53.7,24.1,53.7,53.7S556.3,472.8,526.7,472.8z M770.4,899.5c-29.6,0-53.7-24.1-53.7-53.7c0-29.6,24.1-53.7,53.7-53.7
	c29.6,0,53.7,24.1,53.7,53.7C824.1,875.4,800,899.5,770.4,899.5z M1022.6,549.6c-29.6,0-53.7-24.1-53.7-53.7
	c0-29.6,24.1-53.7,53.7-53.7s53.7,24.1,53.7,53.7C1076.3,525.5,1052.2,549.6,1022.6,549.6z M1332.4,700.9c10.2-12,25.1-19,40.9-19
	c3.1,0,6.2,0.3,9.3,0.8c22.1,3.6,40,21.6,43.6,43.6c2.6,16.1-1.6,31.8-12,44c-12.2,14.4-31.1,21.3-50.2,18.2
	c-22.1-3.6-40-21.6-43.6-43.6C1317.8,728.7,1322,713.1,1332.4,700.9z M1406.8,288.6c29.6,0,53.7,24.1,53.7,53.7
	s-24.1,53.7-53.7,53.7s-53.7-24.1-53.7-53.7S1377.2,288.6,1406.8,288.6z"/>
</svg>
