<?xml version="1.0" encoding="utf-8"?>
<!-- Generator: Adobe Illustrator 18.0.0, SVG Export Plug-In . SVG Version: 6.00 Build 0)  -->
<!DOCTYPE svg PUBLIC "-//W3C//DTD SVG 1.1//EN" "http://www.w3.org/Graphics/SVG/1.1/DTD/svg11.dtd">
<svg version="1.1" id="Layer_2" xmlns="http://www.w3.org/2000/svg" xmlns:xlink="http://www.w3.org/1999/xlink" x="0px" y="0px"
	 viewBox="0 0 119 31" enable-background="new 0 0 119 31" xml:space="preserve">
<g>
	<g>
		<path fill="#FFFFFF" d="M62.4,4.8c-0.8,0-1.2,0.5-1.4,1.4c0.2,0.9,0.6,1.4,1.3,1.4c0.9-0.1,1.4-0.5,1.4-1.2V6
			C63.7,5.4,63.3,5,62.4,4.8z"/>
		<g>
			<path fill="#FFFFFF" d="M51.7,8.2c-0.9,0.1-1.5,0.2-2,0.3c-3.3,1.2-4.9,3.5-4.9,7v10.5c0.2,0.9,0.6,1.3,1.3,1.3
				c0.9-0.2,1.3-0.6,1.3-1.2v-5.7c1.1,1,2.4,1.5,4,1.5h0.4c1,0,2-0.3,3.1-0.8c2.4-1.5,3.6-3.5,3.6-6.1c0-1.8-0.7-3.4-2.1-4.9
				C55.1,8.9,53.5,8.2,51.7,8.2z M55.9,15.2c0,0.5-0.1,1-0.3,1.5c-0.9,1.7-2.1,2.6-3.8,2.6h-0.3c-0.6,0-1.2-0.1-1.8-0.4
				c-1.5-0.9-2.3-2.1-2.3-3.7v-0.2c0-0.4,0.1-0.8,0.2-1.2c0.8-1.9,2.1-2.8,3.9-2.8c0.9,0,1.7,0.2,2.4,0.7c1.2,0.9,1.8,2,1.8,3.3
				V15.2z"/>
			<path fill="#FFFFFF" d="M62.4,8.1c-0.8,0-1.3,0.5-1.4,1.5v11.2c0.2,0.9,0.6,1.3,1.3,1.3h0.1c0.9-0.1,1.3-0.6,1.3-1.3V9.3
				C63.7,8.7,63.2,8.3,62.4,8.1z"/>
			<path fill="#FFFFFF" d="M73.3,19.4h-0.5l-1-0.1c-0.6-0.2-0.9-0.8-0.9-1.8V11h1.3l0.8,0.1c0.7-0.3,1.1-0.7,1.1-1.4
				c-0.2-0.9-0.6-1.3-1.3-1.3l-0.4,0.1h-1.5V4.6c0-0.6-0.4-1-1.2-1.1h-0.2c-0.7,0-1.1,0.5-1.2,1.4v3.6h-0.8l-0.9-0.1v0.1
				c-0.4,0-0.7,0.4-0.8,1.2c0,0.6,0.4,1.1,1.1,1.4l0.8-0.1h0.5v6.8c0,0.6,0.1,1.1,0.2,1.5c0.8,1.8,2,2.7,3.7,2.7h1
				c0.7,0,1.1-0.4,1.3-1.2v-0.1C74.4,19.9,74,19.4,73.3,19.4z"/>
			<path fill="#FFFFFF" d="M82.3,8.2c-1,0-2.1,0.3-3.1,0.8c-2.5,1.5-3.8,3.6-3.8,6.1c0,1.2,0.3,2.3,0.9,3.4c1.6,2.4,3.5,3.5,5.9,3.5
				h0.4c1.7,0,3.1-0.5,4.1-1.5l0,0.3V21c0.3,0.7,0.7,1,1.3,1H88c0.8-0.1,1.3-0.6,1.3-1.2v-5.5c0-1.1-0.2-2.2-0.7-3.2
				C87,9.5,84.9,8.2,82.3,8.2z M86.6,15.3c0,0.6-0.2,1.3-0.5,2c-0.9,1.5-2.1,2.2-3.6,2.2h-0.4c-0.4,0-0.9-0.1-1.5-0.3
				c-1.8-0.9-2.6-2.2-2.6-3.9V15c0-0.4,0.1-0.9,0.3-1.4c0.9-1.8,2.2-2.8,4-2.8h0.1c0.6,0,1.2,0.1,1.8,0.4c1.7,0.9,2.5,2.2,2.5,3.9
				V15.3z"/>
			<path fill="#FFFFFF" d="M98.3,8.1c-1.4,0-2.7,0.4-4,1.3c-2,1.5-3,3.4-3,5.7c0,1.5,0.5,2.9,1.5,4.3c1.6,1.8,3.3,2.6,5.2,2.6h0.4
				c0.4,0,0.9-0.1,1.6-0.2c2.2-0.9,3.3-1.7,3.3-2.5v-0.1c-0.1-0.8-0.6-1.3-1.2-1.3H102l-0.5,0.1c-1,0.9-2.1,1.3-3.1,1.3
				c-0.6,0-1.2-0.1-1.7-0.3c-1.8-0.9-2.7-2.2-2.7-4c0-0.5,0.1-1,0.3-1.6c0.9-1.8,2.2-2.7,3.9-2.7h0.3c0.6,0,1.3,0.2,1.9,0.5
				c0.8,0.6,1.4,1,1.7,1h0.1c0.7,0,1.1-0.4,1.3-1.3v-0.1c0-0.2-0.1-0.5-0.2-0.7C101.8,8.8,100.1,8.1,98.3,8.1z"/>
			<path fill="#FFFFFF" d="M116.6,10.3c-1.4-1.3-3.1-2-4.8-2c-1.4,0-2.7,0.4-3.9,1.3c-2,1.5-3,3.4-3,5.6c0,1.5,0.5,2.9,1.5,4.3
				c1.6,1.7,3.3,2.6,5.2,2.6h0.4c1,0,2-0.3,3.1-0.8c2.4-1.5,3.7-3.5,3.7-6.1C118.6,13.3,117.9,11.7,116.6,10.3z M116,15.2
				c0,0.5-0.1,1-0.3,1.6c-0.9,1.7-2.1,2.6-3.8,2.6h-0.3c-0.6,0-1.2-0.1-1.8-0.4c-1.5-0.9-2.3-2.1-2.3-3.7V15c0-0.4,0.1-0.8,0.2-1.2
				c0.8-1.9,2.2-2.8,4-2.8c0.9,0,1.7,0.2,2.4,0.7c1.2,0.9,1.8,2,1.8,3.3V15.2z"/>
		</g>
	</g>
	<g>
		<path fill="#FFFFFF" d="M15.9,0c-1.9,0-3.4,1.5-3.4,3.4c0,0.4,0.1,0.8,0.2,1.2l-7,4.6c-0.6-0.4-1.2-0.7-2-0.7
			C2,8.5,0.5,10,0.5,11.9c0,1.9,1.5,3.4,3.4,3.4c0.4,0,0.8-0.1,1.2-0.2l4.7,8.8c-0.6,0.6-1,1.5-1,2.4c0,1.9,1.5,3.4,3.4,3.4
			c1.9,0,3.4-1.5,3.4-3.4c0-1.9-1.5-3.4-3.4-3.4c-0.4,0-0.7,0.1-1,0.2l-4.7-8.9c0.6-0.6,0.9-1.4,0.9-2.3c0-0.5-0.1-1.1-0.4-1.5
			l6.8-4.5c0.6,0.5,1.4,0.9,2.3,0.9c1.9,0,3.4-1.5,3.4-3.4C19.3,1.5,17.8,0,15.9,0z M13.9,26.3c0,1-0.8,1.8-1.8,1.8
			s-1.8-0.8-1.8-1.8c0-1,0.8-1.8,1.8-1.8S13.9,25.3,13.9,26.3z M2,11.9c0-1,0.8-1.8,1.8-1.8s1.8,0.8,1.8,1.8s-0.8,1.8-1.8,1.8
			S2,12.9,2,11.9z M15.9,5.2c-1,0-1.8-0.8-1.8-1.8s0.8-1.8,1.8-1.8s1.8,0.8,1.8,1.8S16.9,5.2,15.9,5.2z"/>
		<path fill="#FFFFFF" d="M33.5,12.7c1.9,0,3.4-1.5,3.4-3.4c0-1.9-1.5-3.4-3.4-3.4c-1.9,0-3.4,1.5-3.4,3.4c0,0.1,0,0.2,0,0.3
			l-6.9,2.9c-0.6-0.8-1.6-1.4-2.7-1.4c-1.9,0-3.4,1.5-3.4,3.4s1.5,3.4,3.4,3.4c0.8,0,1.4-0.3,2-0.7l6.7,4.1
			c-0.2,0.6-0.3,1.2-0.2,1.8c0.2,1.4,1.4,2.5,2.8,2.8c0.2,0,0.4,0,0.6,0c1,0,1.9-0.4,2.6-1.2c0.6-0.8,0.9-1.8,0.8-2.7
			c-0.2-1.4-1.4-2.5-2.8-2.8c-0.2,0-0.4,0-0.6,0c-0.8,0-1.6,0.3-2.2,0.8l-6.6-4c0.2-0.4,0.4-1,0.4-1.5c0-0.2,0-0.4-0.1-0.6l6.8-2.8
			C31.2,12,32.3,12.7,33.5,12.7z M20.5,16.3c-1,0-1.8-0.8-1.8-1.8s0.8-1.8,1.8-1.8c1,0,1.8,0.8,1.8,1.8S21.5,16.3,20.5,16.3z
			 M32.3,20.7c0.1,0,0.2,0,0.3,0c0.7,0.1,1.3,0.7,1.5,1.5c0.1,0.5-0.1,1.1-0.4,1.5c-0.4,0.5-1,0.7-1.7,0.6c-0.7-0.1-1.3-0.7-1.5-1.5
			c-0.1-0.5,0.1-1.1,0.4-1.5C31.3,21,31.8,20.7,32.3,20.7z M33.5,7.5c1,0,1.8,0.8,1.8,1.8s-0.8,1.8-1.8,1.8c-1,0-1.8-0.8-1.8-1.8
			S32.5,7.5,33.5,7.5z"/>
	</g>
</g>
</svg>
