<?xml version="1.0" encoding="utf-8"?>
<!-- Generator: Adobe Illustrator 18.0.0, SVG Export Plug-In . SVG Version: 6.00 Build 0)  -->
<!DOCTYPE svg PUBLIC "-//W3C//DTD SVG 1.1//EN" "http://www.w3.org/Graphics/SVG/1.1/DTD/svg11.dtd">
<svg version="1.1" id="Layer_3" xmlns="http://www.w3.org/2000/svg" xmlns:xlink="http://www.w3.org/1999/xlink" x="0px" y="0px"
	 viewBox="0 0 119 31" enable-background="new 0 0 119 31" xml:space="preserve">
<g>
	<path fill="#FFFFFF" d="M51.6,8.2c-0.9,0.1-1.5,0.2-2,0.3c-3.3,1.2-4.9,3.5-4.9,7V26c0.2,0.9,0.6,1.3,1.3,1.3
		c0.9-0.2,1.3-0.6,1.3-1.2v-5.7c1.1,1,2.4,1.5,4,1.5h0.4c1,0,2-0.3,3.1-0.8c2.4-1.5,3.6-3.5,3.6-6.1c0-1.8-0.7-3.4-2.1-4.9
		C55,8.9,53.4,8.2,51.6,8.2z M55.8,15.2c0,0.5-0.1,1-0.3,1.5c-0.9,1.7-2.1,2.6-3.8,2.6h-0.3c-0.6,0-1.2-0.1-1.8-0.4
		c-1.5-0.9-2.3-2.1-2.3-3.7v-0.2c0-0.4,0.1-0.8,0.2-1.2c0.8-1.9,2.1-2.8,3.9-2.8c0.9,0,1.7,0.2,2.4,0.7c1.2,0.9,1.8,2,1.8,3.3V15.2z
		"/>
	<path fill="#FFFFFF" d="M62.3,8.1c-0.8,0-1.3,0.5-1.4,1.5v11.2c0.2,0.9,0.6,1.3,1.3,1.3h0.1c0.9-0.1,1.3-0.6,1.3-1.3V9.3
		C63.6,8.7,63.2,8.3,62.3,8.1z"/>
	<path fill="#FFFFFF" d="M62.3,4.8c-0.7,0-1.2,0.4-1.4,1.3c0.2,0.9,0.6,1.3,1.3,1.3c0.9-0.1,1.4-0.5,1.4-1.2V6
		C63.6,5.4,63.2,5,62.3,4.8z"/>
	<path fill="#FFFFFF" d="M73.3,19.4h-0.5l-1-0.1c-0.6-0.2-0.9-0.8-0.9-1.8V11h1.3l0.8,0.1c0.7-0.3,1.1-0.7,1.1-1.4
		c-0.2-0.9-0.6-1.3-1.3-1.3l-0.4,0.1h-1.5V4.6c0-0.6-0.4-1-1.2-1.1h-0.2c-0.7,0-1.1,0.5-1.2,1.4v3.6h-0.8l-0.9-0.1v0.1
		c-0.4,0-0.7,0.4-0.8,1.2c0,0.6,0.4,1.1,1.1,1.4l0.8-0.1h0.5v6.8c0,0.6,0.1,1.1,0.2,1.5c0.8,1.8,2,2.7,3.7,2.7h1
		c0.7,0,1.1-0.4,1.3-1.2v-0.1C74.3,19.8,73.9,19.4,73.3,19.4z"/>
	<path fill="#FFFFFF" d="M82.2,8.2c-1,0-2.1,0.3-3.1,0.8c-2.5,1.5-3.8,3.5-3.8,6.1c0,1.1,0.3,2.3,0.9,3.4c1.6,2.4,3.5,3.5,5.9,3.5
		h0.4c1.7,0,3.1-0.5,4.1-1.5l0,0.3V21c0.3,0.7,0.7,1,1.3,1h0.1c0.8-0.1,1.3-0.6,1.3-1.2v-5.5c0-1.1-0.2-2.2-0.7-3.2
		C86.9,9.5,84.8,8.2,82.2,8.2z M86.5,15.3c0,0.6-0.2,1.3-0.5,2c-0.9,1.5-2.1,2.2-3.6,2.2H82c-0.4,0-0.9-0.1-1.5-0.3
		c-1.8-0.9-2.6-2.2-2.6-3.9V15c0-0.4,0.1-0.9,0.3-1.4c0.9-1.8,2.2-2.8,4-2.8h0.1c0.6,0,1.2,0.1,1.8,0.4c1.7,0.9,2.5,2.2,2.5,3.9
		V15.3z"/>
	<path fill="#FFFFFF" d="M98.2,8.2c-1.4,0-2.7,0.4-3.9,1.3c-2,1.5-3,3.4-3,5.7c0,1.5,0.5,2.9,1.5,4.3c1.6,1.8,3.3,2.6,5.2,2.6h0.4
		c0.4,0,0.9-0.1,1.6-0.2c2.2-0.9,3.3-1.7,3.3-2.5v-0.1c-0.1-0.8-0.6-1.3-1.2-1.3h-0.2l-0.5,0.1c-1,0.9-2.1,1.3-3.1,1.3
		c-0.6,0-1.2-0.1-1.7-0.3c-1.8-0.9-2.7-2.2-2.7-3.9c0-0.5,0.1-1,0.3-1.6c0.9-1.8,2.2-2.7,3.9-2.7h0.3c0.6,0,1.3,0.2,1.9,0.5
		c0.8,0.6,1.4,1,1.7,1h0.1c0.7,0,1.1-0.4,1.3-1.3v-0.1c0-0.2-0.1-0.5-0.2-0.7C101.7,8.8,100,8.2,98.2,8.2z"/>
	<path fill="#FFFFFF" d="M116.5,10.3c-1.4-1.3-3-2-4.8-2c-1.4,0-2.7,0.4-3.9,1.3c-2,1.5-3,3.4-3,5.6c0,1.5,0.5,2.9,1.5,4.3
		c1.6,1.7,3.3,2.6,5.2,2.6h0.4c1,0,2-0.3,3.1-0.8c2.4-1.5,3.7-3.5,3.7-6.1C118.5,13.3,117.8,11.7,116.5,10.3z M115.8,15.2
		c0,0.5-0.1,1-0.3,1.6c-0.9,1.7-2.1,2.6-3.8,2.6h-0.3c-0.6,0-1.2-0.1-1.8-0.4c-1.5-0.9-2.3-2.1-2.3-3.7V15c0-0.4,0.1-0.8,0.2-1.2
		c0.8-1.9,2.2-2.8,4-2.8c0.9,0,1.7,0.2,2.4,0.7c1.2,0.9,1.8,2,1.8,3.3V15.2z"/>
	<path fill="#FFFFFF" d="M33.4,12.6c1.9,0,3.4-1.5,3.4-3.4c0-1.9-1.5-3.4-3.4-3.4c-0.9,0-1.7,0.3-2.3,0.9l-11.9-4
		C19,1.2,17.6,0,15.9,0c-1.9,0-3.4,1.5-3.4,3.4c0,0.4,0.1,0.8,0.2,1.2l-7,4.6c-0.6-0.4-1.2-0.6-2-0.6C2,8.5,0.5,10,0.5,11.9
		c0,1.9,1.5,3.4,3.4,3.4c0.4,0,0.8-0.1,1.2-0.2l4.6,8.9c-0.6,0.6-1,1.4-1,2.4c0,1.9,1.5,3.4,3.4,3.4s3.4-1.5,3.4-3.4
		c0-1.9-1.5-3.4-3.4-3.4c-0.4,0-0.7,0.1-1.1,0.2l-4.6-8.9c0.2-0.3,0.4-0.6,0.6-0.9L17.2,15c0.3,1.6,1.6,2.8,3.3,2.8
		c0.7,0,1.4-0.2,2-0.6l6.7,4.1c-0.2,0.6-0.3,1.2-0.2,1.8c0.2,1.4,1.4,2.5,2.8,2.8c0.2,0,0.4,0,0.6,0c1,0,1.9-0.4,2.6-1.2
		c0.6-0.8,0.9-1.8,0.8-2.7c-0.2-1.4-1.4-2.5-2.8-2.8c-0.2,0-0.4,0-0.6,0c-0.8,0-1.6,0.3-2.2,0.8l-6.6-4c0.2-0.5,0.4-1,0.4-1.5
		c0-1.9-1.5-3.4-3.4-3.4c-0.2,0-0.4,0-0.6,0.1L18,6c0.5-0.4,0.9-1,1.1-1.6l11.2,3.7c-0.1,0.4-0.2,0.7-0.2,1.1
		C30.1,11.1,31.6,12.6,33.4,12.6z M33.4,7.5c1,0,1.8,0.8,1.8,1.8s-0.8,1.8-1.8,1.8c-1,0-1.8-0.8-1.8-1.8S32.4,7.5,33.4,7.5z
		 M15.9,1.6c1,0,1.8,0.8,1.8,1.8s-0.8,1.8-1.8,1.8s-1.8-0.8-1.8-1.8S14.9,1.6,15.9,1.6z M2,11.9c0-1,0.8-1.8,1.8-1.8
		s1.8,0.8,1.8,1.8s-0.8,1.8-1.8,1.8S2,12.9,2,11.9z M13.8,26.2c0,1-0.8,1.8-1.8,1.8s-1.8-0.8-1.8-1.8s0.8-1.8,1.8-1.8
		S13.8,25.2,13.8,26.2z M32.3,20.7c0.1,0,0.2,0,0.3,0c0.7,0.1,1.3,0.7,1.5,1.5c0.1,0.5-0.1,1.1-0.4,1.5c-0.4,0.5-1,0.7-1.7,0.6
		c-0.7-0.1-1.3-0.7-1.5-1.5c-0.1-0.5,0.1-1.1,0.4-1.5C31.3,20.9,31.8,20.7,32.3,20.7z M22.3,14.5c0,1-0.8,1.8-1.8,1.8
		s-1.8-0.8-1.8-1.8s0.8-1.8,1.8-1.8S22.3,13.5,22.3,14.5z M18.5,11.8c-0.5,0.4-1,1-1.2,1.6L7.2,11.7c0-0.5-0.2-0.9-0.4-1.4l6.8-4.5
		c0.6,0.6,1.4,0.9,2.3,0.9c0.2,0,0.5,0,0.7-0.1L18.5,11.8z"/>
</g>
</svg>
