<?xml version="1.0" encoding="utf-8"?>
<!-- Generator: Adobe Illustrator 18.0.0, SVG Export Plug-In . SVG Version: 6.00 Build 0)  -->
<!DOCTYPE svg PUBLIC "-//W3C//DTD SVG 1.1//EN" "http://www.w3.org/Graphics/SVG/1.1/DTD/svg11.dtd">
<svg version="1.1" xmlns="http://www.w3.org/2000/svg" xmlns:xlink="http://www.w3.org/1999/xlink" x="0px" y="0px"
	 viewBox="0 0 235.3 68.3" enable-background="new 0 0 235.3 68.3" xml:space="preserve">
<g id="button-seguir">
	<path id="_x3C_button-base-seguir_x3E_" fill="#3498DB" d="M158.7,62.6h-75c-1.6,0-3-1.3-3-3V42c0-1.7,1.4-3,3-3h75
		c1.6,0,3,1.3,3,3v17.6C161.7,61.2,160.3,62.6,158.7,62.6z"/>
	<rect x="100.8" y="44.5" fill="none" width="40.9" height="13.2"/>
	<text transform="matrix(1 0 0 1 100.7917 55)" fill="#FFFFFF" font-family="'Roboto-Bold'" font-size="14">Seguir</text>
</g>
<g id="pitaco-project-circle">
	<g id="_x3C_pitaco-project-image_x3E_">
		<defs>
			<circle id="_x3C_pitaco-logo-project-mask_x3E_" cx="33.3" cy="34.8" r="30.3"/>
		</defs>
		<clipPath id="_x3C_pitaco-logo-project-mask_x3E__1_">
			<use xlink:href="#_x3C_pitaco_x002D_logo_x002D_project_x002D_mask_x3E_"  overflow="visible"/>
		</clipPath>
		
			<linearGradient id="_x3C_pitaco-logo-project_x3E__1_" gradientUnits="userSpaceOnUse" x1="9.6596" y1="34.0793" x2="56.1491" y2="34.0793">
			<stop  offset="0" style="stop-color:#2ECC71"/>
			<stop  offset="0.1098" style="stop-color:#2EC879"/>
			<stop  offset="0.2849" style="stop-color:#30BC91"/>
			<stop  offset="0.5021" style="stop-color:#32AAB6"/>
			<stop  offset="0.6839" style="stop-color:#3498DB"/>
			<stop  offset="1" style="stop-color:#3498DB"/>
		</linearGradient>
		
			<path id="_x3C_pitaco-logo-project_x3E_" clip-path="url(#_x3C_pitaco-logo-project-mask_x3E__1_)" fill="url(#_x3C_pitaco-logo-project_x3E__1_)" d="
			M51.8,31.3c2.4,0,4.3-1.9,4.3-4.3c0-2.4-1.9-4.3-4.3-4.3c-1.1,0-2.1,0.4-2.9,1.1l-15.3-5.1c-0.4-2-2.1-3.6-4.2-3.6
			c-2.4,0-4.3,1.9-4.3,4.3c0,0.5,0.1,1,0.3,1.5l-8.9,5.9C15.8,26.3,14.9,26,14,26c-2.4,0-4.3,1.9-4.3,4.3c0,2.4,1.9,4.3,4.3,4.3
			c0.5,0,1.1-0.1,1.5-0.3l5.9,11.3c-0.8,0.8-1.3,1.8-1.3,3c0,2.4,1.9,4.3,4.3,4.3s4.3-1.9,4.3-4.3c0-2.4-1.9-4.3-4.3-4.3
			c-0.5,0-0.9,0.1-1.4,0.2l-5.9-11.4c0.3-0.3,0.6-0.7,0.8-1.2l13.2,2.3c0.3,2,2.1,3.6,4.2,3.6c0.9,0,1.8-0.3,2.5-0.8l8.6,5.2
			c-0.3,0.7-0.4,1.5-0.3,2.3c0.3,1.8,1.7,3.2,3.5,3.5c0.2,0,0.5,0.1,0.7,0.1c1.3,0,2.5-0.6,3.3-1.5c0.8-1,1.2-2.2,1-3.5
			c-0.3-1.8-1.7-3.2-3.5-3.5c-0.2,0-0.5-0.1-0.7-0.1c-1,0-2,0.4-2.8,1.1l-8.4-5.1c0.3-0.6,0.5-1.3,0.5-2c0-2.4-1.9-4.3-4.3-4.3
			c-0.3,0-0.5,0-0.8,0.1l-2.4-6.6c0.6-0.5,1.1-1.2,1.4-2l14.3,4.8c-0.2,0.5-0.3,0.9-0.3,1.4C47.5,29.4,49.5,31.3,51.8,31.3z
			 M51.8,24.7c1.3,0,2.3,1,2.3,2.3s-1,2.3-2.3,2.3c-1.3,0-2.3-1-2.3-2.3S50.6,24.7,51.8,24.7z M29.4,17.2c1.3,0,2.3,1,2.3,2.3
			s-1,2.3-2.3,2.3c-1.3,0-2.3-1-2.3-2.3S28.2,17.2,29.4,17.2z M11.7,30.3c0-1.3,1-2.3,2.3-2.3s2.3,1,2.3,2.3c0,1.3-1,2.3-2.3,2.3
			S11.7,31.6,11.7,30.3z M26.8,48.7c0,1.3-1,2.3-2.3,2.3c-1.3,0-2.3-1-2.3-2.3c0-1.3,1-2.3,2.3-2.3C25.7,46.4,26.8,47.4,26.8,48.7z
			 M50.4,41.6c0.1,0,0.3,0,0.4,0c1,0.2,1.7,0.9,1.9,1.9c0.1,0.7-0.1,1.4-0.5,1.9c-0.5,0.6-1.3,0.9-2.2,0.8c-1-0.2-1.7-0.9-1.9-1.9
			c-0.1-0.7,0.1-1.4,0.5-1.9C49.1,41.9,49.7,41.6,50.4,41.6z M37.6,33.6c0,1.3-1,2.3-2.3,2.3c-1.3,0-2.3-1-2.3-2.3
			c0-1.3,1-2.3,2.3-2.3C36.6,31.3,37.6,32.4,37.6,33.6z M32.7,30.2c-0.7,0.5-1.2,1.3-1.5,2.1l-13-2.3c0-0.6-0.2-1.2-0.5-1.7l8.7-5.8
			c0.8,0.7,1.8,1.2,2.9,1.2c0.3,0,0.6,0,0.9-0.1L32.7,30.2z"/>
	</g>
</g>
<g id="pitaco-project-border-circle">
	
		<circle id="_x3C_pitaco-project-border-circle-path_x3E_" fill="none" stroke="#FFFFFF" stroke-width="3" stroke-miterlimit="10" cx="34.3" cy="35" r="30.3"/>
</g>
<g id="project-name">
	<rect x="78.7" y="8.3" fill="none" width="155.3" height="19"/>
	<text transform="matrix(1 0 0 1 78.6667 26.3332)" fill="#FFFFFF" font-family="'Roboto-Bold'" font-size="24">Projeto Pitaco</text>
</g>
</svg>
