<?xml version="1.0" encoding="utf-8"?>
<!-- Generator: Adobe Illustrator 18.0.0, SVG Export Plug-In . SVG Version: 6.00 Build 0)  -->
<!DOCTYPE svg PUBLIC "-//W3C//DTD SVG 1.1//EN" "http://www.w3.org/Graphics/SVG/1.1/DTD/svg11.dtd">
<svg version="1.1" xmlns="http://www.w3.org/2000/svg" xmlns:xlink="http://www.w3.org/1999/xlink" x="0px" y="0px"
	 viewBox="0 0 570.9 631.2" enable-background="new 0 0 570.9 631.2" xml:space="preserve">
<g id="Base">
	<path fill="#51515E" d="M559.6,628.9H11.3c-6.2,0-11.3-5.1-11.3-11.3V11.3C0,5.1,5.1,0,11.3,0h548.3c6.2,0,11.3,5.1,11.3,11.3
		v606.2C570.9,623.8,565.8,628.9,559.6,628.9z"/>
</g>
<g id="img-project-owner">
	<g>
		<defs>
			<circle id="SVGID_1_" cx="88.5" cy="443.8" r="38.5"/>
		</defs>
		<clipPath id="SVGID_2_">
			<use xlink:href="#SVGID_1_"  overflow="visible"/>
		</clipPath>
		<g clip-path="url(#SVGID_2_)">
			
				<image overflow="visible" width="266" height="266" xlink:href="../user_profile.jpg"  transform="matrix(0.3102 0 0 0.3102 46.5396 400.0118)">
			</image>
		</g>
	</g>
</g>
<g id="infos-dono-do-projeto">
	<rect x="145" y="417.3" fill="none" width="191" height="35.3"/>
	<text transform="matrix(1 0 0 1 144.9981 439.0821)" fill="#FFFFFF" font-family="'Roboto-Bold'" font-size="29">Projeto Pitaco</text>
	<rect x="144" y="450.4" fill="none" width="191" height="35.3"/>
	<text transform="matrix(1 0 0 1 143.9975 468.3529)" fill="#FFFFFF" font-family="'Roboto-Regular'" font-size="24">Giulia Bins</text>
</g>
<g id="tags-project">
	<rect x="49.5" y="521" fill="none" width="474.8" height="17.7"/>
	<text transform="matrix(1 0 0 1 49.4978 536.7686)" opacity="0.5" fill="#FFFFFF" font-family="'Roboto-Regular'" font-size="21">Feedback, Pitaco, Metalinguagem, Projeto final</text>
</g>
<g id="divisor-line">
	<line opacity="0.5" fill="#FFFFFF" stroke="#FFFFFF" stroke-miterlimit="10" x1="50" y1="557" x2="521" y2="557"/>
</g>
<g id="Comments">
	<rect x="49" y="581.5" fill="none" width="28.5" height="21.5"/>
	<text transform="matrix(1 0 0 1 48.9987 600.2513)" fill="#FFFFFF" font-family="'Roboto-Regular'" font-size="25">53</text>
	<path fill="none" d="M82,577h30.3v30.3H82V577z"/>
	<path fill="#FFFFFF" d="M108.5,584.6h-2.5v11.3H89.6v2.5c0,0.7,0.6,1.3,1.3,1.3h13.9l5,5v-18.9
		C109.7,585.1,109.2,584.6,108.5,584.6z M103.4,592.1v-11.3c0-0.7-0.6-1.3-1.3-1.3H85.8c-0.7,0-1.3,0.6-1.3,1.3v17.6l5-5h12.6
		C102.9,593.4,103.4,592.8,103.4,592.1z"/>
</g>
<g id="Users">
	<rect x="148" y="581.5" fill="none" width="28.5" height="21.5"/>
	<text transform="matrix(1 0 0 1 147.9987 600.2513)" fill="#FFFFFF" font-family="'Roboto-Regular'" font-size="25">32</text>
	<path fill="none" d="M186,579.5h26.5V606H186V579.5z"/>
	<path fill="#FFFFFF" d="M203.7,591.7c1.8,0,3.3-1.5,3.3-3.3c0-1.8-1.5-3.3-3.3-3.3s-3.3,1.5-3.3,3.3
		C200.4,590.2,201.8,591.7,203.7,591.7z M194.8,591.7c1.8,0,3.3-1.5,3.3-3.3c0-1.8-1.5-3.3-3.3-3.3s-3.3,1.5-3.3,3.3
		C191.5,590.2,193,591.7,194.8,591.7z M194.8,593.9c-2.6,0-7.7,1.3-7.7,3.9v2.8h15.5v-2.8C202.6,595.2,197.4,593.9,194.8,593.9z
		 M203.7,593.9c-0.3,0-0.7,0-1.1,0.1c1.3,0.9,2.2,2.2,2.2,3.8v2.8h6.6v-2.8C211.4,595.2,206.2,593.9,203.7,593.9z"/>
</g>
<g id="project-img">
	<g>
		<defs>
			<path id="SVGID_3_" d="M0,386.4V11.3C0,5.1,5.1,0,11.3,0h548.3c6.2,0,11.3,5.1,11.3,11.3v375.1C425,386.4,266,386.4,0,386.4z"/>
		</defs>
		<clipPath id="SVGID_4_">
			<use xlink:href="#SVGID_3_"  overflow="visible"/>
		</clipPath>
		<g clip-path="url(#SVGID_4_)">
			<image overflow="visible" width="571" height="392" xlink:href="card_img.jpg"  transform="matrix(1 0 0 1 -3.570193e-02 0)">
			</image>
		</g>
	</g>
</g>
</svg>
