<?xml version="1.0" encoding="utf-8"?>
<!-- Generator: Adobe Illustrator 18.0.0, SVG Export Plug-In . SVG Version: 6.00 Build 0)  -->
<!DOCTYPE svg PUBLIC "-//W3C//DTD SVG 1.1//EN" "http://www.w3.org/Graphics/SVG/1.1/DTD/svg11.dtd">
<svg version="1.1" xmlns="http://www.w3.org/2000/svg" xmlns:xlink="http://www.w3.org/1999/xlink" x="0px" y="0px"
	 viewBox="0 0 40 40" enable-background="new 0 0 40 40" xml:space="preserve">
<g id="Layer_2">
	<rect fill="#0E0B1F" width="40" height="40"/>
</g>
<g id="Layer_1">
	<linearGradient id="SVGID_1_" gradientUnits="userSpaceOnUse" x1="4.6045" y1="19.543" x2="35.4207" y2="19.543">
		<stop  offset="0" style="stop-color:#2ECC71"/>
		<stop  offset="0.1098" style="stop-color:#2EC879"/>
		<stop  offset="0.2849" style="stop-color:#30BC91"/>
		<stop  offset="0.5021" style="stop-color:#32AAB6"/>
		<stop  offset="0.6839" style="stop-color:#3498DB"/>
		<stop  offset="1" style="stop-color:#3498DB"/>
	</linearGradient>
	<path fill="url(#SVGID_1_)" d="M32.6,17.7c1.6,0,2.9-1.3,2.9-2.9c0-1.6-1.3-2.9-2.9-2.9c-0.7,0-1.4,0.3-1.9,0.8L20.5,9.4
		C20.3,8,19.1,7,17.7,7c-1.6,0-2.9,1.3-2.9,2.9c0,0.3,0.1,0.7,0.2,1l-5.9,3.9c-0.5-0.3-1-0.5-1.7-0.5c-1.6,0-2.9,1.3-2.9,2.9
		c0,1.6,1.3,2.9,2.9,2.9c0.4,0,0.7-0.1,1-0.2l3.9,7.5c-0.5,0.5-0.8,1.2-0.8,2c0,1.6,1.3,2.9,2.9,2.9s2.9-1.3,2.9-2.9
		c0-1.6-1.3-2.9-2.9-2.9c-0.3,0-0.6,0.1-0.9,0.1L9.6,19c0.2-0.2,0.4-0.5,0.5-0.8l8.7,1.5c0.2,1.4,1.4,2.4,2.8,2.4
		c0.6,0,1.2-0.2,1.7-0.5L29,25c-0.2,0.5-0.3,1-0.2,1.6c0.2,1.2,1.2,2.1,2.3,2.3c0.2,0,0.3,0,0.5,0c0.8,0,1.6-0.4,2.2-1
		c0.5-0.6,0.8-1.5,0.6-2.3c-0.2-1.2-1.2-2.1-2.3-2.3c-0.2,0-0.3,0-0.5,0c-0.7,0-1.4,0.3-1.9,0.7l-5.6-3.4c0.2-0.4,0.3-0.8,0.3-1.3
		c0-1.6-1.3-2.9-2.9-2.9c-0.2,0-0.4,0-0.5,0.1l-1.6-4.4c0.4-0.3,0.7-0.8,0.9-1.3l9.5,3.2c-0.1,0.3-0.2,0.6-0.2,1
		C29.7,16.4,31,17.7,32.6,17.7z M32.6,13.3c0.8,0,1.5,0.7,1.5,1.5s-0.7,1.5-1.5,1.5c-0.8,0-1.5-0.7-1.5-1.5S31.7,13.3,32.6,13.3z
		 M17.7,8.3c0.8,0,1.5,0.7,1.5,1.5c0,0.8-0.7,1.5-1.5,1.5c-0.8,0-1.5-0.7-1.5-1.5C16.2,9,16.9,8.3,17.7,8.3z M5.9,17.1
		c0-0.8,0.7-1.5,1.5-1.5S9,16.2,9,17.1c0,0.8-0.7,1.5-1.5,1.5S5.9,17.9,5.9,17.1z M15.9,29.2c0,0.8-0.7,1.5-1.5,1.5
		c-0.8,0-1.5-0.7-1.5-1.5c0-0.8,0.7-1.5,1.5-1.5C15.3,27.7,15.9,28.4,15.9,29.2z M31.6,24.6c0.1,0,0.2,0,0.3,0
		c0.6,0.1,1.1,0.6,1.2,1.2c0.1,0.5,0,0.9-0.3,1.3c-0.3,0.4-0.9,0.6-1.4,0.5c-0.6-0.1-1.1-0.6-1.2-1.2c-0.1-0.5,0-0.9,0.3-1.3
		C30.7,24.8,31.2,24.6,31.6,24.6z M23.1,19.2c0,0.8-0.7,1.5-1.5,1.5c-0.8,0-1.5-0.7-1.5-1.5c0-0.8,0.7-1.5,1.5-1.5
		C22.5,17.7,23.1,18.4,23.1,19.2z M19.9,17c-0.5,0.4-0.8,0.8-1,1.4l-8.6-1.5c0-0.4-0.1-0.8-0.3-1.1l5.8-3.8c0.5,0.5,1.2,0.8,1.9,0.8
		c0.2,0,0.4,0,0.6-0.1L19.9,17z"/>
</g>
</svg>
