<?xml version="1.0" encoding="utf-8"?>
<!-- Generator: Adobe Illustrator 18.0.0, SVG Export Plug-In . SVG Version: 6.00 Build 0)  -->
<!DOCTYPE svg PUBLIC "-//W3C//DTD SVG 1.1//EN" "http://www.w3.org/Graphics/SVG/1.1/DTD/svg11.dtd">
<svg version="1.1" id="Layer_1" xmlns="http://www.w3.org/2000/svg" xmlns:xlink="http://www.w3.org/1999/xlink" x="0px" y="0px"
	 viewBox="0 0 16 16" enable-background="new 0 0 16 16" xml:space="preserve">
<linearGradient id="SVGID_1_" gradientUnits="userSpaceOnUse" x1="7.277805e-02" y1="7.5002" x2="16.0428" y2="7.5002">
	<stop  offset="0" style="stop-color:#2DCA71"/>
	<stop  offset="0.1113" style="stop-color:#2EC679"/>
	<stop  offset="0.2889" style="stop-color:#2FBA91"/>
	<stop  offset="0.5092" style="stop-color:#32A7B6"/>
	<stop  offset="0.6839" style="stop-color:#3596D9"/>
	<stop  offset="1" style="stop-color:#3596D9"/>
</linearGradient>
<path fill="url(#SVGID_1_)" d="M14.6,6.6c0.8,0,1.5-0.7,1.5-1.5c0-0.8-0.7-1.5-1.5-1.5c-0.4,0-0.7,0.1-1,0.4L8.3,2.2
	C8.2,1.5,7.6,1,6.9,1C6,1,5.4,1.7,5.4,2.5c0,0.2,0,0.3,0.1,0.5L2.4,5C2.2,4.8,1.9,4.7,1.6,4.7c-0.8,0-1.5,0.7-1.5,1.5
	c0,0.8,0.7,1.5,1.5,1.5c0.2,0,0.4,0,0.5-0.1l2,3.9c-0.3,0.3-0.4,0.6-0.4,1c0,0.8,0.7,1.5,1.5,1.5s1.5-0.7,1.5-1.5
	C6.6,11.7,6,11,5.2,11c-0.2,0-0.3,0-0.5,0.1l-2-3.9c0.1-0.1,0.2-0.3,0.3-0.4l4.5,0.8c0.1,0.7,0.7,1.2,1.5,1.2c0.3,0,0.6-0.1,0.9-0.3
	l3,1.8c-0.1,0.3-0.1,0.5-0.1,0.8c0.1,0.6,0.6,1.1,1.2,1.2c0.1,0,0.2,0,0.2,0c0.4,0,0.8-0.2,1.1-0.5c0.3-0.3,0.4-0.8,0.3-1.2
	c-0.1-0.6-0.6-1.1-1.2-1.2c-0.1,0-0.2,0-0.2,0c-0.4,0-0.7,0.1-1,0.4L10.2,8c0.1-0.2,0.2-0.4,0.2-0.7c0-0.8-0.7-1.5-1.5-1.5
	c-0.1,0-0.2,0-0.3,0L7.8,3.6C8,3.4,8.2,3.2,8.3,2.9l4.9,1.6c-0.1,0.2-0.1,0.3-0.1,0.5C13.1,5.9,13.7,6.6,14.6,6.6z M14.6,4.3
	c0.4,0,0.8,0.4,0.8,0.8c0,0.4-0.4,0.8-0.8,0.8c-0.4,0-0.8-0.4-0.8-0.8C13.8,4.6,14.1,4.3,14.6,4.3z M6.9,1.7c0.4,0,0.8,0.4,0.8,0.8
	S7.3,3.3,6.9,3.3c-0.4,0-0.8-0.4-0.8-0.8S6.4,1.7,6.9,1.7z M0.8,6.2c0-0.4,0.4-0.8,0.8-0.8s0.8,0.4,0.8,0.8C2.3,6.6,2,7,1.6,7
	S0.8,6.6,0.8,6.2z M5.9,12.5c0,0.4-0.4,0.8-0.8,0.8S4.4,13,4.4,12.5s0.4-0.8,0.8-0.8S5.9,12.1,5.9,12.5z M14.1,10.1c0,0,0.1,0,0.1,0
	c0.3,0.1,0.6,0.3,0.6,0.6c0,0.2,0,0.5-0.2,0.7c-0.2,0.2-0.5,0.3-0.7,0.3c-0.3-0.1-0.6-0.3-0.6-0.6c0-0.2,0-0.5,0.2-0.7
	C13.6,10.2,13.8,10.1,14.1,10.1z M9.7,7.3c0,0.4-0.4,0.8-0.8,0.8S8.1,7.8,8.1,7.3c0-0.4,0.4-0.8,0.8-0.8S9.7,6.9,9.7,7.3z M8,6.2
	C7.7,6.4,7.6,6.6,7.5,6.9L3,6.1C3,5.9,3,5.7,2.9,5.5l3-2C6.1,3.8,6.5,4,6.9,4c0.1,0,0.2,0,0.3,0L8,6.2z"/>
</svg>
